# Blender v2.71 (sub 0) OBJ File: ''
# www.blender.org
mtllib airtext_clouds_dot.mtl
o Icosphere.309_Icosphere.000
v 30.888777 -13.619382 -10.205751
v 32.046391 -12.735054 -9.364706
v 30.446617 -12.735055 -8.844899
v 29.457891 -12.735048 -10.205751
v 30.446617 -12.735055 -11.566604
v 32.046391 -12.735054 -11.046797
v 31.330936 -11.304147 -8.844899
v 29.731163 -11.304148 -9.364706
v 29.731163 -11.304148 -11.046797
v 31.330936 -11.304147 -11.566604
v 32.319664 -11.304153 -10.205751
v 30.888777 -10.419820 -10.205751
v 30.628883 -13.380462 -9.405869
v 31.569201 -13.380461 -9.711401
v 31.309309 -12.860666 -8.911510
v 32.249626 -12.860663 -10.205751
v 31.569201 -13.380461 -10.700102
v 30.047724 -13.380457 -10.205751
v 29.787825 -12.860663 -9.405866
v 30.628883 -13.380462 -11.005634
v 29.787825 -12.860663 -11.005637
v 31.309309 -12.860666 -11.499992
v 32.410259 -12.019601 -9.711399
v 32.410259 -12.019601 -10.700104
v 30.888777 -12.019601 -8.605970
v 31.829105 -12.019601 -8.911502
v 29.367292 -12.019601 -9.711399
v 29.948448 -12.019601 -8.911502
v 29.948448 -12.019601 -11.500001
v 29.367292 -12.019601 -10.700104
v 31.829105 -12.019601 -11.500001
v 30.888777 -12.019601 -11.805532
v 31.989729 -11.178538 -9.405866
v 30.468245 -11.178535 -8.911510
v 29.527927 -11.178538 -10.205751
v 30.468245 -11.178535 -11.499992
v 31.989729 -11.178538 -11.005637
v 31.148670 -10.658740 -9.405869
v 31.729830 -10.658745 -10.205751
v 30.208353 -10.658741 -9.711401
v 30.208353 -10.658741 -10.700102
v 31.148670 -10.658740 -11.005634
v 30.888777 -13.619382 -10.205751
v 32.046391 -12.735054 -9.364706
v 30.446617 -12.735055 -8.844899
v 29.457891 -12.735048 -10.205751
v 30.446617 -12.735055 -11.566604
v 32.046391 -12.735054 -11.046797
v 31.330936 -11.304147 -8.844899
v 29.731163 -11.304148 -9.364706
v 29.731163 -11.304148 -11.046797
v 31.330936 -11.304147 -11.566604
v 32.319664 -11.304153 -10.205751
v 30.888777 -10.419820 -10.205751
v 30.628883 -13.380462 -9.405869
v 31.569201 -13.380461 -9.711401
v 31.309309 -12.860666 -8.911510
v 32.249626 -12.860663 -10.205751
v 31.569201 -13.380461 -10.700102
v 30.047724 -13.380457 -10.205751
v 29.787825 -12.860663 -9.405866
v 30.628883 -13.380462 -11.005634
v 29.787825 -12.860663 -11.005637
v 31.309309 -12.860666 -11.499992
v 32.410259 -12.019601 -9.711399
v 32.410259 -12.019601 -10.700104
v 30.888777 -12.019601 -8.605970
v 31.829105 -12.019601 -8.911502
v 29.367292 -12.019601 -9.711399
v 29.948448 -12.019601 -8.911502
v 29.948448 -12.019601 -11.500001
v 29.367292 -12.019601 -10.700104
v 31.829105 -12.019601 -11.500001
v 30.888777 -12.019601 -11.805532
v 31.989729 -11.178538 -9.405866
v 30.468245 -11.178535 -8.911510
v 29.527927 -11.178538 -10.205751
v 30.468245 -11.178535 -11.499992
v 31.989729 -11.178538 -11.005637
v 31.148670 -10.658740 -9.405869
v 31.729830 -10.658745 -10.205751
v 30.208353 -10.658741 -9.711401
v 30.208353 -10.658741 -10.700102
v 31.148670 -10.658740 -11.005634
v 31.262829 -15.009352 -9.301735
v 33.029617 -14.116331 -9.356437
v 30.039455 -15.009350 -9.494274
v 30.039455 -15.009350 -10.917229
v 31.262829 -15.009352 -11.109768
v 33.676109 -12.968675 -9.356437
v 30.917553 -12.968678 -7.249313
v 28.154238 -12.968676 -9.301726
v 29.197983 -12.968680 -12.484010
v 32.533054 -12.968679 -12.517812
v 33.403683 -12.578303 -8.378576
v 29.928169 -12.578306 -7.249309
v 27.825485 -12.578302 -10.205751
v 29.928169 -12.578306 -13.162194
v 33.403683 -12.578303 -12.032927
v 32.223423 -9.922871 -8.120041
v 29.345728 -9.922871 -8.378588
v 28.747936 -9.922871 -11.055066
v 30.961231 -9.922871 -12.484001
v 33.183056 -9.922882 -10.917230
v 30.816322 -14.116331 -7.927502
v 31.399151 -14.391842 -8.387829
v 32.431828 -14.116331 -8.378588
v 33.029617 -14.116331 -11.055066
v 32.880577 -14.391837 -10.205751
v 31.759003 -15.009353 -10.205751
v 28.594498 -14.116320 -9.494273
v 29.422670 -14.391840 -9.234973
v 29.554131 -14.116331 -8.120041
v 29.554131 -14.116331 -12.291462
v 29.422670 -14.391840 -11.176530
v 28.594498 -14.116320 -10.917230
v 32.431828 -14.116331 -12.032915
v 31.399151 -14.391842 -12.023673
v 30.816322 -14.116331 -12.484001
v 33.952068 -11.460899 -10.205751
v 33.901321 -12.740249 -10.205751
v 33.676109 -12.968675 -11.055066
v 31.849384 -11.460896 -7.249309
v 31.844524 -12.740248 -7.264271
v 32.533054 -12.968679 -7.893691
v 28.373873 -11.460898 -8.378576
v 28.386597 -12.740243 -8.387820
v 29.197983 -12.968680 -7.927493
v 28.373873 -11.460898 -12.032927
v 28.386597 -12.740243 -12.023683
v 28.154238 -12.968676 -11.109776
v 31.849384 -11.460896 -13.162194
v 31.844524 -12.740248 -13.147232
v 30.917553 -12.968678 -13.162189
v 32.579571 -11.070521 -7.927493
v 33.390957 -11.298959 -8.387820
v 33.623318 -11.070526 -9.301726
v 29.244499 -11.070522 -7.893691
v 29.933029 -11.298954 -7.264271
v 30.860001 -11.070523 -7.249313
v 28.101444 -11.070527 -11.055066
v 27.876232 -11.298953 -10.205751
v 28.101444 -11.070527 -9.356437
v 30.860001 -11.070523 -13.162189
v 29.933029 -11.298954 -13.147232
v 29.244499 -11.070522 -12.517812
v 33.623318 -11.070526 -11.109776
v 33.390957 -11.298959 -12.023683
v 32.579571 -11.070521 -12.484010
v 31.738098 -9.029852 -9.494274
v 32.354881 -9.647362 -9.234973
v 33.183056 -9.922882 -9.494273
v 30.514725 -9.029850 -9.301735
v 30.378403 -9.647360 -8.387829
v 30.961231 -9.922871 -7.927502
v 30.018551 -9.029849 -10.205751
v 28.896976 -9.647365 -10.205751
v 28.747934 -9.922871 -9.356437
v 30.514725 -9.029850 -11.109768
v 30.378403 -9.647360 -12.023674
v 29.345728 -9.922871 -12.032915
v 31.738098 -9.029852 -10.917229
v 32.354881 -9.647362 -11.176530
v 32.223423 -9.922871 -12.291462
vn 0.627400 -0.298900 -0.719100
vn 0.304100 0.178200 0.935800
vn -0.911400 -0.366700 -0.186600
vn -0.340600 -0.237000 0.909900
vn -0.112300 -0.603600 -0.789300
vn 0.809500 0.576900 0.109500
vn 0.863100 -0.332900 0.379900
vn -0.782800 0.252400 0.568800
vn -0.112800 -0.397200 -0.910800
vn -0.112800 -0.397200 0.910800
vn -0.782800 0.252400 -0.568800
vn 0.863100 -0.332900 -0.379900
vn -0.911400 -0.366700 0.186600
vn 0.304100 0.178200 -0.935800
vn 0.627400 -0.298900 0.719100
vn -0.141600 -0.983500 0.112700
vn 0.496200 0.367600 -0.786600
vn 0.054600 0.412800 0.909200
vn -0.150900 -0.983500 -0.099500
vn 0.900700 0.364600 0.236000
vn -0.851100 0.421500 0.312900
vn 0.053700 -0.982800 -0.176500
vn 0.035900 0.357000 0.933400
vn -0.567000 0.418500 -0.709500
vn 0.185500 -0.982600 -0.002200
vn -0.876100 0.357400 0.323400
vn 0.488300 0.411700 -0.769500
vn 0.059400 -0.982600 0.175700
vn -0.578400 0.357400 -0.733300
vn 0.882700 0.411700 0.226700
vn 0.524300 -0.572200 -0.630600
vn 0.268600 0.943300 0.195200
vn -0.437800 -0.572200 0.693500
vn 0.761800 -0.572200 0.303700
vn -0.102600 0.943300 0.315800
vn -0.794800 -0.572200 -0.202000
vn -0.055000 -0.572300 0.818200
vn -0.340700 0.940200 0.000000
vn -0.055000 -0.572300 -0.818200
vn -0.794800 -0.572200 0.202000
vn -0.102600 0.943300 -0.315800
vn 0.761800 -0.572200 -0.303700
vn -0.437800 -0.572200 -0.693500
vn 0.268600 0.943300 -0.195200
vn 0.524300 -0.572200 0.630600
vn 0.565700 -0.639000 0.521200
vn 0.385700 0.624100 -0.679500
vn -0.808000 0.239600 0.538200
vn -0.338300 -0.607500 0.718700
vn 0.768200 0.621300 0.154200
vn -0.755100 0.228100 -0.614700
vn -0.809500 -0.576900 -0.109500
vn 0.112300 0.603600 0.789300
vn 0.340600 0.237000 -0.909900
vn -0.145800 -0.574100 -0.805700
vn -0.719900 0.580700 0.380300
vn 0.964400 0.264300 0.009300
vn 0.683700 -0.623100 -0.379900
vn -0.575800 0.587300 -0.568800
vn 0.304800 0.278600 0.910800
vn 0.719900 -0.580700 -0.380300
vn 0.145800 0.574100 0.805700
vn -0.964400 -0.264300 -0.009300
vn -0.198500 -0.766300 -0.611100
vn 0.964800 0.134000 0.226400
vn -0.672600 0.203800 0.711400
vn 0.755100 -0.228100 -0.614700
vn 0.338300 0.607500 0.718700
vn -0.768200 -0.621300 0.154200
vn -0.112300 -0.603600 0.789300
vn -0.340600 -0.237000 -0.909900
vn 0.809500 0.576900 -0.109500
vn 0.474300 0.195500 0.858400
vn -0.610700 -0.791900 0.000000
vn 0.474300 0.195500 -0.858400
vn -0.487300 -0.305100 0.818200
vn -0.487300 -0.305100 -0.818200
vn 0.993300 0.115700 0.000000
vn 0.575800 -0.587300 0.568800
vn -0.683700 0.623100 0.379900
vn -0.304800 -0.278600 -0.910800
vn 0.554000 -0.728700 -0.402500
vn 0.059700 0.096600 0.993500
vn -0.899600 0.169600 -0.402500
vn 0.808000 -0.239600 0.538200
vn -0.565700 0.639000 0.521200
vn -0.385700 -0.624100 -0.679500
vn -0.385700 -0.624100 0.679500
vn -0.565700 0.639000 -0.521200
vn 0.808000 -0.239600 -0.538200
vn 0.554000 -0.728700 0.402500
vn -0.899600 0.169600 0.402500
vn 0.059700 0.096600 -0.993500
vn -0.304800 -0.278600 0.910800
vn -0.683700 0.623100 -0.379900
vn 0.575800 -0.587300 -0.568800
vn -0.768200 -0.621300 -0.154200
vn 0.338300 0.607500 -0.718700
vn 0.755100 -0.228100 0.614700
vn -0.198500 -0.766300 0.611100
vn -0.672600 0.203800 -0.711400
vn 0.964800 0.134000 -0.226400
vn -0.964400 -0.264300 0.009300
vn 0.145800 0.574100 -0.805700
vn 0.719900 -0.580700 0.380300
vn 0.340700 -0.940200 0.000000
vn 0.055000 0.572300 -0.818200
vn 0.055000 0.572300 0.818200
vn 0.037300 -0.511700 0.858400
vn 0.037300 -0.511700 -0.858400
vn 0.435200 0.900400 0.000000
vn -0.141600 -0.983500 -0.112700
vn 0.054600 0.412800 -0.909200
vn 0.496200 0.367600 0.786600
vn 0.102600 -0.943300 0.315800
vn 0.794800 0.572200 -0.202000
vn -0.761800 0.572200 0.303700
vn -0.805600 -0.511400 0.299100
vn 0.827500 -0.511400 -0.231500
vn 0.128800 0.909000 0.396500
vn 0.059400 -0.982600 -0.175700
vn 0.882700 0.411700 -0.226700
vn -0.578400 0.357400 0.733300
vn -0.268600 -0.943300 0.195200
vn 0.437800 0.572200 0.693500
vn -0.524300 0.572200 -0.630600
vn -0.533400 -0.511400 -0.673700
vn 0.475900 -0.511400 0.715500
vn -0.337200 0.909000 0.245000
vn 0.185500 -0.982600 0.002200
vn 0.488300 0.411700 0.769500
vn -0.876100 0.357400 -0.323400
vn -0.268600 -0.943300 -0.195200
vn -0.524300 0.572200 0.630600
vn 0.437800 0.572200 -0.693500
vn 0.475900 -0.511400 -0.715500
vn -0.533400 -0.511500 0.673700
vn -0.337200 0.909000 -0.245000
vn 0.053700 -0.982800 0.176500
vn -0.567000 0.418500 0.709500
vn 0.035900 0.357000 -0.933400
vn 0.102600 -0.943300 -0.315800
vn -0.761800 0.572200 -0.303700
vn 0.794800 0.572200 0.202000
vn 0.827500 -0.511400 0.231500
vn -0.805600 -0.511500 -0.299100
vn 0.128800 0.909000 -0.396500
vn -0.150900 -0.983500 0.099500
vn -0.851100 0.421500 -0.312900
vn 0.900700 0.364600 -0.236000
vn 0.876100 -0.357400 -0.323400
vn -0.185500 0.982600 0.002200
vn -0.488300 -0.411700 0.769500
vn 0.337200 -0.909000 0.245000
vn 0.533400 0.511400 -0.673700
vn -0.475900 0.511400 0.715500
vn 0.567000 -0.418500 -0.709500
vn -0.053700 0.982800 -0.176500
vn -0.035900 -0.357000 0.933400
vn 0.578400 -0.357400 0.733300
vn -0.059400 0.982600 -0.175700
vn -0.882700 -0.411700 -0.226700
vn -0.128800 -0.909000 0.396500
vn 0.805600 0.511500 0.299100
vn -0.827500 0.511400 -0.231500
vn 0.851100 -0.421500 0.312900
vn 0.150900 0.983500 -0.099500
vn -0.900700 -0.364600 0.236000
vn -0.496200 -0.367600 0.786600
vn 0.141600 0.983500 -0.112700
vn -0.054600 -0.412800 -0.909200
vn -0.435200 -0.900400 0.000000
vn -0.037300 0.511700 0.858400
vn -0.037300 0.511700 -0.858400
vn -0.054600 -0.412800 0.909200
vn 0.141600 0.983500 0.112700
vn -0.496200 -0.367600 -0.786600
vn -0.900700 -0.364600 -0.236000
vn 0.150900 0.983500 0.099500
vn 0.851100 -0.421500 -0.312900
vn -0.128800 -0.909000 -0.396500
vn -0.827500 0.511400 0.231500
vn 0.805600 0.511500 -0.299100
vn -0.882700 -0.411700 0.226700
vn -0.059400 0.982600 0.175700
vn 0.578400 -0.357400 -0.733300
vn -0.035900 -0.357000 -0.933400
vn -0.053700 0.982800 0.176500
vn 0.567000 -0.418500 0.709500
vn 0.337200 -0.909000 -0.245000
vn -0.475900 0.511400 -0.715500
vn 0.533400 0.511400 0.673700
vn -0.488300 -0.411700 -0.769500
vn -0.185500 0.982600 -0.002200
vn 0.876100 -0.357400 0.323400
vn 0.782800 -0.252400 0.568800
vn 0.112800 0.397200 -0.910800
vn -0.863100 0.332900 0.379900
vn -0.059700 -0.096600 0.993500
vn 0.899600 -0.169600 -0.402500
vn -0.554000 0.728700 -0.402500
vn 0.683700 -0.623100 0.379900
vn 0.304800 0.278600 -0.910800
vn -0.575800 0.587300 0.568800
vn -0.304100 -0.178200 0.935800
vn 0.911400 0.366700 -0.186600
vn -0.627400 0.298900 -0.719100
vn -0.964800 -0.134000 0.226400
vn 0.672600 -0.203800 0.711400
vn 0.198500 0.766300 -0.611100
vn -0.145800 -0.574100 0.805700
vn 0.964400 0.264300 -0.009300
vn -0.719900 0.580700 -0.380300
vn -0.993300 -0.115700 0.000000
vn 0.487300 0.305100 0.818200
vn 0.487300 0.305100 -0.818200
vn -0.474300 -0.195500 -0.858400
vn -0.474300 -0.195500 0.858400
vn 0.610700 0.791900 0.000000
vn -0.809500 -0.576900 0.109500
vn 0.340600 0.237000 0.909900
vn 0.112300 0.603600 -0.789300
vn -0.304100 -0.178200 -0.935800
vn -0.627400 0.298900 0.719100
vn 0.911400 0.366700 0.186600
vn 0.672600 -0.203800 -0.711400
vn -0.964800 -0.134000 -0.226400
vn 0.198500 0.766300 0.611100
vn -0.338300 -0.607500 -0.718700
vn -0.755100 0.228100 0.614700
vn 0.768200 0.621300 -0.154200
vn 0.782800 -0.252400 -0.568800
vn -0.863100 0.332900 -0.379900
vn 0.112800 0.397200 0.910800
vn 0.899600 -0.169600 0.402500
vn -0.059700 -0.096600 -0.993500
vn -0.554000 0.728700 0.402500
vn 0.565700 -0.639000 -0.521200
vn -0.808000 0.239600 -0.538200
vn 0.385700 0.624100 0.679500
usemtl Material.001
s off
f 14//1 85//1 1//1
f 13//2 85//2 14//2
f 1//3 85//3 13//3
f 14//4 86//4 2//4
f 16//5 86//5 14//5
f 2//6 86//6 16//6
f 13//7 87//7 1//7
f 18//8 87//8 13//8
f 1//9 87//9 18//9
f 18//10 88//10 1//10
f 20//11 88//11 18//11
f 1//12 88//12 20//12
f 20//13 89//13 1//13
f 17//14 89//14 20//14
f 1//15 89//15 17//15
f 16//16 90//16 2//16
f 23//17 90//17 16//17
f 2//18 90//18 23//18
f 15//19 91//19 3//19
f 25//20 91//20 15//20
f 3//21 91//21 25//21
f 19//22 92//22 4//22
f 27//23 92//23 19//23
f 4//24 92//24 27//24
f 21//25 93//25 5//25
f 29//26 93//26 21//26
f 5//27 93//27 29//27
f 22//28 94//28 6//28
f 31//29 94//29 22//29
f 6//30 94//30 31//30
f 23//31 95//31 2//31
f 26//32 95//32 23//32
f 2//33 95//33 26//33
f 25//34 96//34 3//34
f 28//35 96//35 25//35
f 3//36 96//36 28//36
f 27//37 97//37 4//37
f 30//38 97//38 27//38
f 4//39 97//39 30//39
f 29//40 98//40 5//40
f 32//41 98//41 29//41
f 5//42 98//42 32//42
f 31//43 99//43 6//43
f 24//44 99//44 31//44
f 6//45 99//45 24//45
f 33//46 100//46 7//46
f 38//47 100//47 33//47
f 7//48 100//48 38//48
f 34//49 101//49 8//49
f 40//50 101//50 34//50
f 8//51 101//51 40//51
f 35//52 102//52 9//52
f 41//53 102//53 35//53
f 9//54 102//54 41//54
f 36//55 103//55 10//55
f 42//56 103//56 36//56
f 10//57 103//57 42//57
f 37//58 104//58 11//58
f 39//59 104//59 37//59
f 11//60 104//60 39//60
f 15//61 105//61 13//61
f 3//62 105//62 15//62
f 13//63 105//63 3//63
f 14//64 106//64 13//64
f 15//65 106//65 14//65
f 13//66 106//66 15//66
f 2//67 107//67 14//67
f 15//68 107//68 2//68
f 14//69 107//69 15//69
f 17//70 108//70 16//70
f 6//71 108//71 17//71
f 16//72 108//72 6//72
f 14//73 109//73 16//73
f 17//74 109//74 14//74
f 16//75 109//75 17//75
f 1//76 110//76 14//76
f 17//77 110//77 1//77
f 14//78 110//78 17//78
f 19//79 111//79 18//79
f 4//80 111//80 19//80
f 18//81 111//81 4//81
f 13//82 112//82 18//82
f 19//83 112//83 13//83
f 18//84 112//84 19//84
f 3//85 113//85 13//85
f 19//86 113//86 3//86
f 13//87 113//87 19//87
f 21//88 114//88 20//88
f 5//89 114//89 21//89
f 20//90 114//90 5//90
f 18//91 115//91 20//91
f 21//92 115//92 18//92
f 20//93 115//93 21//93
f 4//94 116//94 18//94
f 21//95 116//95 4//95
f 18//96 116//96 21//96
f 22//97 117//97 17//97
f 6//98 117//98 22//98
f 17//99 117//99 6//99
f 20//100 118//100 17//100
f 22//101 118//101 20//101
f 17//102 118//102 22//102
f 5//103 119//103 20//103
f 22//104 119//104 5//104
f 20//105 119//105 22//105
f 24//106 120//106 23//106
f 11//107 120//107 24//107
f 23//108 120//108 11//108
f 16//109 121//109 23//109
f 24//110 121//110 16//110
f 23//111 121//111 24//111
f 6//112 122//112 16//112
f 24//113 122//113 6//113
f 16//114 122//114 24//114
f 26//115 123//115 25//115
f 7//116 123//116 26//116
f 25//117 123//117 7//117
f 15//118 124//118 25//118
f 26//119 124//119 15//119
f 25//120 124//120 26//120
f 2//121 125//121 15//121
f 26//122 125//122 2//122
f 15//123 125//123 26//123
f 28//124 126//124 27//124
f 8//125 126//125 28//125
f 27//126 126//126 8//126
f 19//127 127//127 27//127
f 28//128 127//128 19//128
f 27//129 127//129 28//129
f 3//130 128//130 19//130
f 28//131 128//131 3//131
f 19//132 128//132 28//132
f 30//133 129//133 29//133
f 9//134 129//134 30//134
f 29//135 129//135 9//135
f 21//136 130//136 29//136
f 30//137 130//137 21//137
f 29//138 130//138 30//138
f 4//139 131//139 21//139
f 30//140 131//140 4//140
f 21//141 131//141 30//141
f 32//142 132//142 31//142
f 10//143 132//143 32//143
f 31//144 132//144 10//144
f 22//145 133//145 31//145
f 32//146 133//146 22//146
f 31//147 133//147 32//147
f 5//148 134//148 22//148
f 32//149 134//149 5//149
f 22//150 134//150 32//150
f 33//151 135//151 26//151
f 7//152 135//152 33//152
f 26//153 135//153 7//153
f 23//154 136//154 26//154
f 33//155 136//155 23//155
f 26//156 136//156 33//156
f 11//157 137//157 23//157
f 33//158 137//158 11//158
f 23//159 137//159 33//159
f 34//160 138//160 28//160
f 8//161 138//161 34//161
f 28//162 138//162 8//162
f 25//163 139//163 28//163
f 34//164 139//164 25//164
f 28//165 139//165 34//165
f 7//166 140//166 25//166
f 34//167 140//167 7//167
f 25//168 140//168 34//168
f 35//169 141//169 30//169
f 9//170 141//170 35//170
f 30//171 141//171 9//171
f 27//172 142//172 30//172
f 35//173 142//173 27//173
f 30//174 142//174 35//174
f 8//175 143//175 27//175
f 35//176 143//176 8//176
f 27//177 143//177 35//177
f 36//178 144//178 32//178
f 10//179 144//179 36//179
f 32//180 144//180 10//180
f 29//181 145//181 32//181
f 36//182 145//182 29//182
f 32//183 145//183 36//183
f 9//184 146//184 29//184
f 36//185 146//185 9//185
f 29//186 146//186 36//186
f 37//187 147//187 24//187
f 11//188 147//188 37//188
f 24//189 147//189 11//189
f 31//190 148//190 24//190
f 37//191 148//191 31//191
f 24//192 148//192 37//192
f 10//193 149//193 31//193
f 37//194 149//194 10//194
f 31//195 149//195 37//195
f 39//196 150//196 38//196
f 12//197 150//197 39//197
f 38//198 150//198 12//198
f 33//199 151//199 38//199
f 39//200 151//200 33//200
f 38//201 151//201 39//201
f 11//202 152//202 33//202
f 39//203 152//203 11//203
f 33//204 152//204 39//204
f 38//205 153//205 40//205
f 12//206 153//206 38//206
f 40//207 153//207 12//207
f 34//208 154//208 40//208
f 38//209 154//209 34//209
f 40//210 154//210 38//210
f 7//211 155//211 34//211
f 38//212 155//212 7//212
f 34//213 155//213 38//213
f 40//214 156//214 41//214
f 12//215 156//215 40//215
f 41//216 156//216 12//216
f 35//217 157//217 41//217
f 40//218 157//218 35//218
f 41//219 157//219 40//219
f 8//220 158//220 35//220
f 40//221 158//221 8//221
f 35//222 158//222 40//222
f 41//223 159//223 42//223
f 12//224 159//224 41//224
f 42//225 159//225 12//225
f 36//226 160//226 42//226
f 41//227 160//227 36//227
f 42//228 160//228 41//228
f 9//229 161//229 36//229
f 41//230 161//230 9//230
f 36//231 161//231 41//231
f 42//232 162//232 39//232
f 12//233 162//233 42//233
f 39//234 162//234 12//234
f 37//235 163//235 39//235
f 42//236 163//236 37//236
f 39//237 163//237 42//237
f 10//238 164//238 37//238
f 42//239 164//239 10//239
f 37//240 164//240 42//240
l 1 43
l 2 44
l 3 45
l 4 46
l 5 47
l 6 48
l 7 49
l 8 50
l 9 51
l 10 52
l 11 53
l 12 54
l 13 55
l 14 56
l 15 57
l 16 58
l 17 59
l 18 60
l 19 61
l 20 62
l 21 63
l 22 64
l 23 65
l 24 66
l 25 67
l 26 68
l 27 69
l 28 70
l 29 71
l 30 72
l 31 73
l 32 74
l 33 75
l 34 76
l 35 77
l 36 78
l 37 79
l 38 80
l 39 81
l 40 82
l 41 83
l 42 84
