# Blender v2.71 (sub 0) OBJ File: 'boom.blend'
# www.blender.org
mtllib boom.mtl
o Cylinder.001
v -1.998782 -0.069798 -0.050000
v 1.998782 0.069798 -0.050000
v -1.998441 -0.079546 -0.049039
v 1.999122 0.060049 -0.049039
v -1.998114 -0.088920 -0.046194
v 1.999449 0.050675 -0.046194
v -1.997812 -0.097559 -0.041573
v 1.999751 0.042036 -0.041573
v -1.997548 -0.105132 -0.035355
v 2.000015 0.034464 -0.035355
v -1.997331 -0.111346 -0.027779
v 2.000232 0.028250 -0.027779
v -1.997170 -0.115964 -0.019134
v 2.000394 0.023632 -0.019134
v -1.997070 -0.118807 -0.009755
v 2.000493 0.020788 -0.009755
v -1.997037 -0.119767 -0.000000
v 2.000527 0.019828 -0.000000
v -1.997070 -0.118807 0.009755
v 2.000493 0.020788 0.009755
v -1.997170 -0.115964 0.019134
v 2.000394 0.023632 0.019134
v -1.997331 -0.111346 0.027779
v 2.000232 0.028250 0.027779
v -1.997548 -0.105132 0.035355
v 2.000015 0.034464 0.035355
v -1.997812 -0.097559 0.041573
v 1.999751 0.042036 0.041573
v -1.998114 -0.088920 0.046194
v 1.999449 0.050675 0.046194
v -1.998441 -0.079546 0.049039
v 1.999122 0.060049 0.049039
v -1.998782 -0.069798 0.050000
v 1.998782 0.069798 0.050000
v -1.999122 -0.060049 0.049039
v 1.998441 0.079546 0.049039
v -1.999449 -0.050675 0.046194
v 1.998114 0.088920 0.046194
v -1.999751 -0.042036 0.041573
v 1.997812 0.097559 0.041573
v -2.000015 -0.034464 0.035355
v 1.997548 0.105132 0.035355
v -2.000232 -0.028250 0.027778
v 1.997331 0.111346 0.027778
v -2.000394 -0.023632 0.019134
v 1.997170 0.115964 0.019134
v -2.000493 -0.020788 0.009754
v 1.997070 0.118807 0.009754
v -2.000527 -0.019828 -0.000000
v 1.997037 0.119767 -0.000000
v -2.000493 -0.020788 -0.009755
v 1.997070 0.118807 -0.009755
v -2.000394 -0.023632 -0.019134
v 1.997170 0.115964 -0.019134
v -2.000232 -0.028250 -0.027779
v 1.997331 0.111346 -0.027779
v -2.000015 -0.034464 -0.035355
v 1.997548 0.105132 -0.035355
v -1.999751 -0.042036 -0.041574
v 1.997812 0.097559 -0.041574
v -1.999449 -0.050675 -0.046194
v 1.998114 0.088920 -0.046194
v -1.999122 -0.060049 -0.049039
v 1.998441 0.079546 -0.049039
vn 0.003400 -0.098000 -0.995200
vn 0.010100 -0.290100 -0.956900
vn 0.016500 -0.471100 -0.881900
vn 0.022100 -0.634000 -0.773000
vn 0.027000 -0.772500 -0.634400
vn 0.030800 -0.881400 -0.471400
vn 0.033400 -0.956400 -0.290300
vn 0.034700 -0.994600 -0.098000
vn 0.034700 -0.994600 0.098000
vn 0.033400 -0.956400 0.290300
vn 0.030800 -0.881400 0.471400
vn 0.027000 -0.772500 0.634400
vn 0.022100 -0.634000 0.773000
vn 0.016500 -0.471100 0.881900
vn 0.010100 -0.290100 0.956900
vn 0.003400 -0.098000 0.995200
vn -0.003400 0.098000 0.995200
vn -0.010100 0.290100 0.956900
vn -0.016500 0.471100 0.881900
vn -0.022100 0.634000 0.773000
vn -0.027000 0.772500 0.634400
vn -0.030800 0.881400 0.471400
vn -0.033400 0.956400 0.290300
vn -0.034700 0.994600 0.098000
vn -0.034700 0.994600 -0.098000
vn -0.033400 0.956400 -0.290300
vn -0.030800 0.881400 -0.471400
vn -0.027000 0.772500 -0.634400
vn -0.022100 0.634000 -0.773000
vn -0.016500 0.471100 -0.881900
vn 0.999400 0.034900 0.000000
vn -0.003400 0.098000 -0.995200
vn -0.010100 0.290100 -0.956900
vn -0.999400 -0.034900 0.000000
vn 0.999400 0.035000 -0.000000
vn 0.999400 0.034600 0.000000
vn 0.999400 0.035100 -0.000000
vn 0.999400 0.034800 0.000000
vn 0.999400 0.035000 0.000100
vn 0.999400 0.035100 -0.000100
vn 0.999400 0.034700 -0.000000
vn -0.999400 -0.035000 0.000000
vn -0.999400 -0.034800 -0.000100
vn -0.999400 -0.034800 0.000000
vn -0.999400 -0.034600 0.000100
usemtl Material
s off
f 2//1 4//1 3//1
f 4//2 6//2 5//2
f 6//3 8//3 7//3
f 8//4 10//4 9//4
f 10//5 12//5 11//5
f 12//6 14//6 13//6
f 14//7 16//7 15//7
f 16//8 18//8 17//8
f 18//9 20//9 19//9
f 20//10 22//10 21//10
f 22//11 24//11 23//11
f 24//12 26//12 25//12
f 26//13 28//13 27//13
f 28//14 30//14 29//14
f 30//15 32//15 31//15
f 32//16 34//16 33//16
f 34//17 36//17 35//17
f 36//18 38//18 37//18
f 38//19 40//19 39//19
f 40//20 42//20 41//20
f 42//21 44//21 43//21
f 44//22 46//22 45//22
f 45//23 46//23 48//23
f 48//24 50//24 49//24
f 50//25 52//25 51//25
f 52//26 54//26 53//26
f 54//27 56//27 55//27
f 56//28 58//28 57//28
f 58//29 60//29 59//29
f 60//30 62//30 61//30
f 38//31 36//31 6//31
f 64//32 2//32 1//32
f 62//33 64//33 63//33
f 31//34 47//34 15//34
f 1//1 2//1 3//1
f 3//2 4//2 5//2
f 5//3 6//3 7//3
f 7//4 8//4 9//4
f 9//5 10//5 11//5
f 11//6 12//6 13//6
f 13//7 14//7 15//7
f 15//8 16//8 17//8
f 17//9 18//9 19//9
f 19//10 20//10 21//10
f 21//11 22//11 23//11
f 23//12 24//12 25//12
f 25//13 26//13 27//13
f 27//14 28//14 29//14
f 29//15 30//15 31//15
f 31//16 32//16 33//16
f 33//17 34//17 35//17
f 35//18 36//18 37//18
f 37//19 38//19 39//19
f 39//20 40//20 41//20
f 41//21 42//21 43//21
f 43//22 44//22 45//22
f 47//23 45//23 48//23
f 47//24 48//24 49//24
f 49//25 50//25 51//25
f 51//26 52//26 53//26
f 53//27 54//27 55//27
f 55//28 56//28 57//28
f 57//29 58//29 59//29
f 59//30 60//30 61//30
f 36//31 28//31 22//31
f 64//31 58//31 54//31
f 58//31 64//31 60//31
f 58//35 56//35 54//35
f 50//36 48//36 52//36
f 48//31 38//31 6//31
f 40//37 48//37 46//37
f 4//31 2//31 64//31
f 32//31 30//31 28//31
f 28//31 36//31 34//31
f 26//38 22//38 28//38
f 26//39 24//39 22//39
f 22//35 20//35 18//35
f 18//35 16//35 14//35
f 14//40 12//40 10//40
f 10//35 8//35 6//35
f 64//35 62//35 60//35
f 6//31 4//31 54//31
f 44//31 40//31 46//31
f 40//41 38//41 48//41
f 48//35 54//35 52//35
f 32//31 28//31 34//31
f 22//38 18//38 14//38
f 6//31 36//31 10//31
f 10//31 36//31 14//31
f 4//31 64//31 54//31
f 36//31 22//31 14//31
f 44//41 42//41 40//41
f 54//31 48//31 6//31
f 63//32 64//32 1//32
f 61//33 62//33 63//33
f 63//34 1//34 3//34
f 7//34 63//34 5//34
f 51//34 63//34 15//34
f 15//42 9//42 13//42
f 17//42 19//42 15//42
f 51//34 59//34 63//34
f 27//34 15//34 25//34
f 27//34 29//34 31//34
f 31//34 33//34 35//34
f 35//34 37//34 39//34
f 39//42 41//42 43//42
f 43//43 45//43 47//43
f 47//44 49//44 51//44
f 51//45 53//45 55//45
f 55//42 57//42 59//42
f 59//34 61//34 63//34
f 47//34 51//34 15//34
f 21//42 23//42 25//42
f 25//34 15//34 21//34
f 31//34 35//34 39//34
f 39//34 43//34 47//34
f 55//42 59//42 51//42
f 63//34 3//34 5//34
f 7//34 9//34 63//34
f 9//34 15//34 63//34
f 31//34 39//34 47//34
f 27//34 31//34 15//34
f 15//42 19//42 21//42
f 9//42 11//42 13//42
