# Blender v2.71 (sub 0) OBJ File: 'platt_segel.blend'
# www.blender.org
mtllib plain_sail.mtl
o Plane
v -0.348622 11.047555 -0.004939
v -4.000526 -0.019828 -0.000000
v -0.002397 0.115461 0.002770
vn 0.000700 -0.000700 -1.000000
usemtl Material.003
s off
f 2//1 1//1 3//1
o BezierCurve.002_Mesh
v -0.348622 11.047555 -0.004939
v -0.607299 10.129992 -0.004873
v -0.881821 9.210791 -0.004687
v -1.169924 8.290186 -0.004399
v -1.469345 7.368411 -0.004024
v -1.777820 6.445700 -0.003581
v -2.093086 5.522287 -0.003087
v -2.412879 4.598407 -0.002558
v -2.734936 3.674292 -0.002012
v -3.056992 2.750177 -0.001466
v -3.376785 1.826297 -0.000938
v -3.692051 0.902884 -0.000443
v -4.000526 -0.019828 -0.000000
v -3.641949 -0.007307 -0.000000
v -3.241730 0.006669 -0.000000
v -2.813750 0.021614 -0.000000
v -2.371890 0.037044 -0.000000
v -1.930029 0.052474 -0.000000
v -1.502049 0.067419 -0.000000
v -1.101830 0.081395 -0.000000
v -0.743253 0.093916 -0.000000
v -0.440197 0.104499 -0.000000
v -0.206543 0.112658 -0.000000
v -0.056172 0.117909 -0.000000
v -0.002963 0.119767 -0.000000
v -0.007564 0.265218 -0.000066
v -0.020566 0.676275 -0.000252
v -0.040770 1.314994 -0.000540
v -0.066975 2.143432 -0.000915
v -0.097980 3.123644 -0.001358
v -0.132586 4.217688 -0.001852
v -0.169592 5.387619 -0.002381
v -0.207799 6.595493 -0.002927
v -0.246006 7.803368 -0.003473
v -0.283012 8.973299 -0.004001
v -0.317618 10.067343 -0.004496
v -0.348622 11.047555 -0.004939
l 4 5
l 5 6
l 6 7
l 7 8
l 8 9
l 9 10
l 10 11
l 11 12
l 12 13
l 13 14
l 14 15
l 15 16
l 16 17
l 17 18
l 18 19
l 19 20
l 20 21
l 21 22
l 22 23
l 23 24
l 24 25
l 25 26
l 26 27
l 27 28
l 28 29
l 29 30
l 30 31
l 31 32
l 32 33
l 33 34
l 34 35
l 35 36
l 36 37
l 37 38
l 38 39
l 39 40
